<svg width="37" height="37" viewBox="0 0 37 37" fill="none" xmlns="http://www.w3.org/2000/svg">
<path d="M18.4985 11.3727C14.5611 11.3727 11.3714 14.564 11.3714 18.4999C11.3714 22.4373 14.5611 25.6285 18.4985 25.6285C22.4328 25.6285 25.6256 22.4373 25.6256 18.4999C25.6256 14.564 22.4328 11.3727 18.4985 11.3727ZM18.4985 23.131C15.9409 23.131 13.8673 21.0575 13.8673 18.5014C13.8673 15.9438 15.9409 13.8718 18.4985 13.8718C21.0561 13.8718 23.1266 15.9438 23.1266 18.5014C23.1266 21.0575 21.0561 23.131 18.4985 23.131Z" fill="white"/>
<path d="M25.9093 12.7726C26.8271 12.7726 27.5712 12.0285 27.5712 11.1107C27.5712 10.1928 26.8271 9.44874 25.9093 9.44874C24.9914 9.44874 24.2474 10.1928 24.2474 11.1107C24.2474 12.0285 24.9914 12.7726 25.9093 12.7726Z" fill="white"/>
<path d="M31.6551 9.42099C30.932 7.55711 29.4597 6.08328 27.5959 5.36332C26.5182 4.95786 25.3789 4.74048 24.2258 4.71582C22.7412 4.65107 22.2709 4.63257 18.5062 4.63257C14.7414 4.63257 14.2589 4.63257 12.7866 4.71582C11.6365 4.73894 10.4972 4.95632 9.41961 5.36332C7.5542 6.08328 6.0819 7.55711 5.3604 9.42099C4.95495 10.5002 4.73757 11.6379 4.71445 12.7911C4.64815 14.2742 4.62811 14.7444 4.62811 18.5107C4.62811 22.2754 4.62811 22.7549 4.71445 24.2302C4.73757 25.3834 4.95495 26.5212 5.3604 27.6019C6.08345 29.4642 7.55574 30.938 9.42115 31.6595C10.4942 32.0789 11.6334 32.3163 12.7897 32.3533C14.2743 32.418 14.7445 32.4381 18.5093 32.4381C22.274 32.4381 22.7566 32.4381 24.2289 32.3533C25.3805 32.3302 26.5198 32.1112 27.5989 31.7073C29.4628 30.9843 30.9351 29.512 31.6582 27.6481C32.0636 26.5689 32.281 25.4312 32.3041 24.278C32.3704 22.7949 32.3904 22.3247 32.3904 18.5584C32.3904 14.7922 32.3904 14.3142 32.3041 12.8389C32.2841 11.6703 32.0682 10.5125 31.6551 9.42099ZM29.7773 24.1162C29.7665 25.0042 29.6062 25.8844 29.2979 26.7185C28.8277 27.9318 27.8703 28.8907 26.6585 29.3563C25.8337 29.6631 24.9642 29.8234 24.0839 29.8357C22.6194 29.9036 22.2062 29.9205 18.4507 29.9205C14.6921 29.9205 14.3082 29.9205 12.8159 29.8357C11.9387 29.8249 11.0661 29.6631 10.2429 29.3563C9.02649 28.8922 8.06295 27.9333 7.59274 26.7185C7.29057 25.8952 7.12715 25.0242 7.11328 24.1454C7.04699 22.6809 7.03157 22.2677 7.03157 18.5122C7.03157 14.7552 7.03157 14.3713 7.11328 12.8774C7.12407 11.9894 7.2844 11.1107 7.59274 10.2766C8.06295 9.06023 9.02649 8.10286 10.2429 7.63728C11.0661 7.33203 11.9387 7.17015 12.8159 7.15782C14.282 7.09153 14.6937 7.07303 18.4507 7.07303C22.2077 7.07303 22.5932 7.07303 24.0839 7.15782C24.9642 7.16861 25.8337 7.33048 26.6585 7.63728C27.8703 8.1044 28.8277 9.06332 29.2979 10.2766C29.6 11.0999 29.7634 11.9709 29.7773 12.8497C29.8436 14.3158 29.8606 14.7274 29.8606 18.4844C29.8606 22.2399 29.8606 22.6439 29.7943 24.1177H29.7773V24.1162Z" fill="white"/>
</svg>
