<svg width="37" height="37" viewBox="0 0 37 37" fill="none" xmlns="http://www.w3.org/2000/svg">
<path d="M34.6246 9.26917C33.4381 9.79542 32.1629 10.1511 30.8247 10.311C32.1905 9.49214 33.2397 8.19555 33.7337 6.65049C32.4552 7.40878 31.0393 7.95937 29.5322 8.25601C28.3253 6.97014 26.6059 6.16675 24.7029 6.16675C21.049 6.16675 18.0864 9.12901 18.0864 12.7829C18.0864 13.3014 18.1449 13.8064 18.2578 14.2907C12.759 14.0148 7.88371 11.3807 4.62053 7.37774C4.05097 8.35491 3.72469 9.49144 3.72469 10.704C3.72469 12.9995 4.89271 15.0246 6.66808 16.2112C5.58361 16.1766 4.56328 15.8791 3.67132 15.3835C3.67069 15.4112 3.67069 15.4388 3.67069 15.4667C3.67069 18.6724 5.95135 21.3465 8.97805 21.9543C8.42289 22.1056 7.83837 22.1865 7.23496 22.1865C6.80863 22.1865 6.39415 22.1449 5.9901 22.0678C6.83208 24.6962 9.2755 26.6092 12.1708 26.6624C9.90639 28.4372 7.05355 29.4949 3.95366 29.4949C3.41961 29.4949 2.89297 29.4635 2.37537 29.4023C5.30339 31.2796 8.78121 32.3751 12.5176 32.3751C24.6873 32.3751 31.3424 22.2934 31.3424 13.5501C31.3424 13.2633 31.3359 12.9779 31.3231 12.6941C32.616 11.7612 33.7377 10.596 34.6246 9.26917Z" fill="white"/>
</svg>
