<svg width="279" height="458" viewBox="0 0 279 458" fill="none" xmlns="http://www.w3.org/2000/svg">
<path d="M113.347 210.558C169.403 207.287 212.194 159.192 208.923 103.135C205.651 47.0783 157.556 4.28743 101.5 7.5589C45.4429 10.8304 2.65206 58.9253 5.92354 114.982C9.19502 171.039 57.29 213.83 113.347 210.558Z" fill="#FE5C4F"/>
<path opacity="0.3" d="M113.347 210.558C169.403 207.287 212.194 159.192 208.923 103.135C205.651 47.0783 157.556 4.28743 101.5 7.5589C45.4429 10.8304 2.65206 58.9253 5.92354 114.982C9.19502 171.039 57.29 213.83 113.347 210.558Z" fill="#FAFAFA"/>
<path d="M38.7442 29.0907L37.79 27.9897C40.0067 26.0667 42.3408 24.2317 44.7042 22.5142L45.5703 23.7032C43.2362 25.4208 40.9315 27.2411 38.7442 29.0907Z" fill="#FE5C4F"/>
<path opacity="0.3" d="M38.7442 29.0907L37.79 27.9897C40.0067 26.0667 42.3408 24.2317 44.7042 22.5142L45.5703 23.7032C43.2362 25.4208 40.9315 27.2411 38.7442 29.0907Z" fill="#FAFAFA"/>
<path d="M16.7977 55.3531L15.5353 54.6044C19.8731 47.2851 25.0618 40.5049 30.9931 34.405L32.0501 35.4179C26.1987 41.4392 21.0791 48.1306 16.7977 55.3531Z" fill="#FE5C4F"/>
<path opacity="0.3" d="M16.7977 55.3531L15.5353 54.6044C19.8731 47.2851 25.0618 40.5049 30.9931 34.405L32.0501 35.4179C26.1987 41.4392 21.0791 48.1306 16.7977 55.3531Z" fill="#FAFAFA"/>
<path d="M107.343 215.921V214.453C116.177 214.438 124.975 213.319 133.532 211.121L133.899 212.589C125.22 214.801 116.299 215.92 107.343 215.921Z" fill="#FE5C4F"/>
<path opacity="0.3" d="M107.343 215.921V214.453C116.177 214.438 124.975 213.319 133.532 211.121L133.899 212.589C125.22 214.801 116.299 215.92 107.343 215.921Z" fill="#FAFAFA"/>
<path d="M107.548 203.282C84.2678 203.3 61.8076 194.684 44.5112 179.102C27.2149 163.519 16.3113 142.076 13.9092 118.92C11.507 95.7634 17.7769 72.539 31.5064 53.7377C45.2358 34.9365 65.4493 21.8943 88.2379 17.1333C111.026 12.3723 134.771 16.2309 154.879 27.9627C174.988 39.6945 190.031 58.4661 197.101 80.6472C204.171 102.828 202.764 126.843 193.153 148.047C183.543 169.251 166.41 186.138 145.07 195.443L144.776 194.767L145.07 195.443C133.237 200.615 120.462 203.284 107.548 203.282ZM107.313 16.3196C84.1188 16.281 61.7445 24.8993 44.5692 40.4878C27.3939 56.0764 16.6539 77.5132 14.4509 100.603C12.2479 123.693 18.7406 146.774 32.6583 165.329C46.576 183.884 66.9169 196.578 89.7004 200.926C112.484 205.274 136.07 200.964 155.843 188.838C175.616 176.713 190.152 157.645 196.608 135.367C203.063 113.089 200.973 89.2033 190.746 68.385C180.518 47.5668 162.891 31.3143 141.312 22.8081C130.49 18.5195 118.954 16.3179 107.313 16.3196Z" fill="#FAFAFA"/>
<path d="M122.727 201.358C118.213 201.325 113.741 200.495 109.515 198.907C89.2573 191.479 69.8799 167.756 58.8407 137.002C41.5186 88.5586 49.1374 36.6214 75.7959 21.193C84.6038 16.0991 94.7916 15.4238 105.244 19.2552C125.487 26.6832 144.879 50.4058 155.904 81.16C173.226 129.603 165.622 181.54 138.948 196.969L138.581 196.338L138.948 196.969C134.028 199.848 128.428 201.363 122.727 201.358ZM92.1198 18.2717C86.6588 18.2647 81.2938 19.7085 76.5739 22.4554C50.4879 37.5463 43.1774 88.72 60.2794 136.517C71.1277 166.861 90.2115 190.246 110.073 197.527C120.1 201.197 129.847 200.565 138.258 195.706C164.359 180.616 171.699 129.442 154.568 81.6444C143.719 51.3012 124.636 27.9163 104.774 20.6351C100.727 19.11 96.4439 18.31 92.1198 18.2717Z" fill="#FAFAFA"/>
<path d="M16.8566 132.965C16.6619 132.99 16.4652 132.937 16.3096 132.818C16.1541 132.698 16.0525 132.521 16.0272 132.327C16.0019 132.132 16.0549 131.935 16.1747 131.78C16.2944 131.624 16.4711 131.522 16.6657 131.497L197.814 85.2118C197.907 85.1855 198.004 85.1785 198.099 85.1912C198.195 85.2039 198.287 85.2359 198.369 85.2855C198.452 85.335 198.523 85.4009 198.579 85.4791C198.635 85.5573 198.675 85.6462 198.695 85.7402C198.72 85.8337 198.725 85.9311 198.712 86.0268C198.698 86.1224 198.666 86.2145 198.617 86.2977C198.568 86.3809 198.503 86.4536 198.426 86.5116C198.348 86.5696 198.26 86.6118 198.167 86.6357L17.0327 132.936L16.8566 132.965Z" fill="#FAFAFA"/>
<path d="M130.596 200.389C130.432 200.39 130.274 200.335 130.145 200.234C130.017 200.133 129.928 199.991 129.891 199.832L83.6202 18.6976C83.5752 18.5089 83.6051 18.3102 83.7036 18.1431C83.8022 17.9761 83.9618 17.8538 84.1487 17.8021C84.2422 17.7778 84.3396 17.7723 84.4352 17.7857C84.5309 17.7991 84.6229 17.8313 84.7061 17.8804C84.7893 17.9295 84.862 17.9946 84.92 18.0718C84.978 18.1491 85.0202 18.237 85.0442 18.3306L131.33 199.465C131.354 199.558 131.359 199.655 131.346 199.751C131.333 199.847 131.3 199.939 131.251 200.022C131.202 200.105 131.137 200.178 131.06 200.236C130.983 200.294 130.895 200.336 130.801 200.36L130.596 200.389Z" fill="#FAFAFA"/>
<path d="M41.9736 176.55C41.8084 176.551 41.6476 176.497 41.5171 176.396C41.3865 176.295 41.2939 176.152 41.2543 175.992C41.2302 175.899 41.2248 175.803 41.2384 175.708C41.252 175.614 41.2844 175.523 41.3336 175.441C41.3828 175.359 41.4479 175.287 41.525 175.231C41.6021 175.174 41.6898 175.133 41.7828 175.111L196.64 135.476C196.733 135.451 196.831 135.446 196.926 135.459C197.022 135.473 197.114 135.505 197.197 135.554C197.281 135.603 197.353 135.668 197.411 135.745C197.469 135.823 197.511 135.911 197.535 136.004C197.58 136.193 197.551 136.392 197.452 136.559C197.353 136.726 197.194 136.848 197.007 136.9L42.1498 176.535C42.0931 176.554 42.0327 176.559 41.9736 176.55Z" fill="#FAFAFA"/>
<path d="M18.031 82.6576C17.8364 82.6829 17.6396 82.6298 17.4841 82.5101C17.3285 82.3903 17.2269 82.2137 17.2016 82.019C17.1763 81.8243 17.2294 81.6276 17.3491 81.472C17.4689 81.3165 17.6455 81.2149 17.8402 81.1896L172.697 41.6275C172.791 41.6033 172.888 41.5977 172.984 41.6111C173.08 41.6246 173.172 41.6568 173.255 41.7059C173.338 41.755 173.411 41.82 173.469 41.8973C173.527 41.9745 173.569 42.0624 173.593 42.156C173.638 42.3428 173.607 42.5396 173.508 42.7043C173.41 42.8689 173.25 42.9883 173.064 43.0368L18.2072 82.6723L18.031 82.6576Z" fill="#FAFAFA"/>
<path d="M83.5909 142.067L107.416 72.0295H98.0065L63.6704 108.435L39.7717 143.623H49.1815L71.025 121.794L74.1812 142.067H83.5909Z" fill="#263238"/>
<path d="M74.1812 142.067L98.0065 72.0295L27.9691 95.8549L48.2566 108.435L26.4131 130.279L39.7717 143.623L61.6006 121.794L74.1812 142.067Z" fill="#FAFAFA"/>
<path d="M240.679 444.632L251.308 441.681L245.538 416.77L234.91 419.72L240.679 444.632Z" fill="#E4897B"/>
<path d="M129.318 421.129V421.144L126.764 434.312L124.504 446.012L113.596 444.294L115.608 434.312L118.279 421.144V421.129H129.318Z" fill="#E4897B"/>
<path d="M125.472 444.867L113.229 442.944C113.013 442.91 112.792 442.95 112.6 443.056C112.409 443.163 112.258 443.33 112.172 443.531L108.488 452.882C108.402 453.11 108.368 453.355 108.389 453.598C108.41 453.841 108.486 454.076 108.61 454.286C108.734 454.495 108.903 454.675 109.106 454.811C109.308 454.946 109.538 455.035 109.78 455.07C114.066 455.672 116.18 455.76 121.524 456.611C129.95 457.677 138.443 458.124 146.934 457.947C151.456 457.947 152.16 453.367 150.267 452.956C141.767 451.106 129.392 448.669 127.087 445.821C126.682 445.319 126.108 444.98 125.472 444.867Z" fill="#263238"/>
<path d="M250.97 440.478L239.226 443.693C239.013 443.75 238.827 443.879 238.698 444.059C238.57 444.238 238.507 444.456 238.522 444.676L239.035 454.703C239.048 454.945 239.115 455.181 239.232 455.394C239.349 455.607 239.512 455.791 239.709 455.932C239.907 456.073 240.134 456.168 240.373 456.209C240.612 456.25 240.857 456.237 241.091 456.171C245.26 454.938 251.249 453.015 256.519 451.561C262.67 449.858 268.087 448.713 275.309 446.717C279.713 445.498 279.713 440.757 277.717 440.845C268.909 441.329 262.053 443.018 253.627 440.581C252.766 440.315 251.849 440.279 250.97 440.478Z" fill="#263238"/>
<path d="M245.538 416.77L248.518 429.615L237.876 432.565L234.91 419.72L245.538 416.77Z" fill="#CE6F64"/>
<path d="M129.318 421.145L126.764 434.312H115.608L118.279 421.145H129.318Z" fill="#CE6F64"/>
<path d="M207.826 165.98H148.799C148.564 160.901 150.267 144.768 150.267 124.055C150.337 109.471 149.316 94.9019 147.213 80.4702C146.685 76.9764 146.063 73.4826 145.349 69.9888C151.874 68.7256 158.474 67.8919 165.108 67.4932C173.463 67.0084 181.84 67.0084 190.196 67.4932C195.923 68.0669 201.597 69.0878 207.166 70.5466C207.166 70.5466 220.142 103.958 207.826 165.98Z" fill="#FE5C4F"/>
<path opacity="0.2" d="M207.826 165.98H148.799C148.564 160.901 150.267 144.768 150.267 124.055C150.337 109.471 149.316 94.9019 147.213 80.4702C146.685 76.9764 146.063 73.4826 145.349 69.9888C151.874 68.7256 158.474 67.8919 165.108 67.4932C173.463 67.0084 181.84 67.0084 190.196 67.4932C195.923 68.0669 201.597 69.0878 207.166 70.5466C207.166 70.5466 220.142 103.958 207.826 165.98Z" fill="black"/>
<path d="M156.682 98.4386C155.036 107.095 152.889 115.648 150.252 124.055C150.327 109.471 149.311 94.9025 147.213 80.4705C153.951 81.7182 158.487 88.0893 156.682 98.4386Z" fill="#FE5C4F"/>
<path opacity="0.4" d="M156.682 98.4386C155.036 107.095 152.889 115.648 150.252 124.055C150.327 109.471 149.311 94.9025 147.213 80.4705C153.951 81.7182 158.487 88.0893 156.682 98.4386Z" fill="black"/>
<path d="M195.187 93.0657H181.27C181.076 93.0657 180.889 92.9883 180.751 92.8507C180.614 92.713 180.536 92.5263 180.536 92.3317C180.54 92.1382 180.619 91.9536 180.755 91.8168C180.892 91.6799 181.077 91.6014 181.27 91.5977H195.187C195.38 91.6014 195.565 91.6799 195.702 91.8168C195.838 91.9536 195.917 92.1382 195.921 92.3317C195.921 92.5263 195.843 92.713 195.706 92.8507C195.568 92.9883 195.381 93.0657 195.187 93.0657Z" fill="#FAFAFA"/>
<path d="M195.187 99.3047H181.27C181.076 99.3047 180.889 99.2273 180.751 99.0897C180.614 98.952 180.536 98.7653 180.536 98.5707C180.536 98.376 180.614 98.1893 180.751 98.0516C180.889 97.914 181.076 97.8367 181.27 97.8367H195.187C195.381 97.8367 195.568 97.914 195.706 98.0516C195.843 98.1893 195.921 98.376 195.921 98.5707C195.921 98.7653 195.843 98.952 195.706 99.0897C195.568 99.2273 195.381 99.3047 195.187 99.3047Z" fill="#FAFAFA"/>
<path d="M195.187 105.543H181.27C181.077 105.539 180.892 105.461 180.755 105.324C180.619 105.187 180.54 105.003 180.536 104.809C180.536 104.615 180.614 104.428 180.751 104.29C180.889 104.153 181.076 104.075 181.27 104.075H195.187C195.381 104.075 195.568 104.153 195.706 104.29C195.843 104.428 195.921 104.615 195.921 104.809C195.917 105.003 195.838 105.187 195.702 105.324C195.565 105.461 195.38 105.539 195.187 105.543Z" fill="#FAFAFA"/>
<path d="M231.226 134.155C231.226 133.259 231.093 132.452 230.976 131.674C230.594 128.444 230.095 125.42 229.508 122.381C228.378 116.363 227.057 110.476 225.603 104.619C224.15 98.7615 222.594 92.9924 220.788 87.1938L203.995 92.0969C205.463 97.7193 207.092 103.43 208.677 109.081C209.715 112.8 210.742 116.509 211.76 120.209L211.276 120.37C211.584 123.482 212.098 126.462 212.744 129.486C213.358 132.601 214.162 135.675 215.151 138.691C215.496 139.7 215.918 140.682 216.414 141.627C216.666 142.093 216.961 142.535 217.294 142.948C217.684 143.455 218.138 143.909 218.645 144.298C218.851 144.46 219.188 144.695 219.467 144.871L220.113 145.208C220.379 145.341 220.653 145.453 220.935 145.546C221.289 145.668 221.652 145.761 222.021 145.825C222.505 145.919 222.997 145.964 223.489 145.957C224.642 145.932 225.776 145.651 226.807 145.135C227.657 144.703 228.419 144.115 229.053 143.403C229.259 143.176 229.45 142.935 229.625 142.684C229.78 142.472 229.923 142.251 230.051 142.023C230.342 141.496 230.578 140.94 230.756 140.364C230.913 139.856 231.026 139.336 231.093 138.808C231.182 138.118 231.196 137.722 231.226 137.34C231.328 135.901 231.27 135.065 231.226 134.155Z" fill="#E4897B"/>
<path d="M194.071 78.151C190.342 88.0158 209.191 117.097 209.191 117.097L231.211 105.118C227.901 96.0744 223.629 87.4126 218.469 79.2813C210.703 67.6403 198.123 67.2586 194.071 78.151Z" fill="#FE5C4F"/>
<path opacity="0.2" d="M194.071 78.151C190.342 88.0158 209.191 117.097 209.191 117.097L231.211 105.118C227.901 96.0744 223.629 87.4126 218.469 79.2813C210.703 67.6403 198.123 67.2586 194.071 78.151Z" fill="black"/>
<path d="M206.843 70.1062C203.904 68.9343 200.796 68.2404 197.638 68.051C197.579 68.0489 197.52 68.0626 197.467 68.0907C197.415 68.1188 197.37 68.1603 197.339 68.211C197.308 68.2617 197.291 68.3198 197.289 68.3793C197.287 68.4389 197.301 68.4978 197.33 68.5501C199.136 72.0586 203.202 79.5747 202.776 109.566C202.351 136.679 208.443 147.645 210.424 150.478C210.474 150.546 210.541 150.597 210.62 150.626C210.698 150.656 210.783 150.661 210.864 150.642C210.946 150.624 211.02 150.581 211.077 150.521C211.135 150.46 211.173 150.384 211.188 150.302L211.775 146.617C211.813 146.428 211.813 146.234 211.775 146.045C211.202 144.107 207.944 132.099 209.529 113.749C212.303 81.5417 207.474 71.1778 206.975 70.2236C206.94 70.175 206.895 70.1349 206.843 70.1062Z" fill="#263238"/>
<path d="M200.853 107.569L199.825 119.181L209.132 120.561L210.894 107.833L200.853 107.569Z" fill="#E4897B"/>
<path d="M219.218 114.234L210.894 107.79L209.133 120.532C209.133 120.532 216.59 125.919 221.743 120.884L219.218 114.234Z" fill="#E4897B"/>
<path d="M167.589 39.2788C169.174 47.3527 170.76 62.1499 165.108 67.5374C165.108 67.5374 168.352 75.7287 183.355 75.7287C197.066 75.7287 190.196 67.5374 190.196 67.5374C181.197 65.3795 181.388 58.7295 183.003 52.4319L167.589 39.2788Z" fill="#E4897B"/>
<path d="M173.872 44.6514L182.988 52.4316C182.605 53.875 182.344 55.3482 182.21 56.8356C179.274 59.6247 174.048 52.5637 173.681 48.9672C173.487 47.5287 173.551 46.0671 173.872 44.6514Z" fill="#CE6F64"/>
<path d="M193.249 14.4111C198.68 16.7158 201.631 31.9388 194.717 35.4472C187.803 38.9557 182.973 10.0952 193.249 14.4111Z" fill="#263238"/>
<path d="M166.635 27.1383C167.31 38.0601 167.148 44.4899 172.668 50.1122C180.962 58.5531 194.467 53.5326 197.066 42.6255C199.415 32.8047 197.932 16.5836 187.23 12.2237C184.874 11.2531 182.309 10.9011 179.779 11.2011C177.249 11.5011 174.837 12.443 172.773 13.9375C170.709 15.432 169.062 17.4294 167.988 19.7399C166.913 22.0503 166.447 24.5971 166.635 27.1383Z" fill="#E4897B"/>
<path d="M198.284 13.1048C198.945 10.1688 196.156 6.82182 193.807 4.8694C191.496 2.97523 188.785 1.63037 185.878 0.93617C182.972 0.241973 179.946 0.216547 177.028 0.861815C173.306 1.39577 169.747 2.74408 166.605 4.81068L169.747 6.27866C166.312 7.86408 156.285 6.3961 158.091 13.6186C143.558 19.9456 164.829 36.7539 169.13 37.4145C178.51 38.8825 168.675 30.3389 172.8 22.6026C173.343 21.4315 173.649 20.1649 173.702 18.8753C173.755 17.5856 173.553 16.2981 173.108 15.0865C177.263 14.2938 189.139 14.3379 193.66 15.9967C195.612 15.7618 197.946 14.6315 198.284 13.1048Z" fill="#263238"/>
<path d="M160.073 15.2332C160.073 15.2332 158.766 11.1522 153.085 12.033C154.509 12.8257 158.252 14.1762 160.073 15.2332Z" fill="#263238"/>
<path d="M161.702 39.1762C162.423 40.3331 163.366 41.3351 164.477 42.124C165.589 42.9128 166.846 43.4727 168.176 43.7709C171.743 44.5637 173.329 41.3194 172.169 38.0605C171.127 35.1245 168 31.1904 164.506 31.8656C163.745 32.0276 163.037 32.3773 162.445 32.8827C161.854 33.3882 161.398 34.0334 161.12 34.7598C160.841 35.4861 160.748 36.2707 160.85 37.0419C160.952 37.8132 161.245 38.5469 161.702 39.1762Z" fill="#E4897B"/>
<path d="M207.826 165.98C207.826 165.98 229.846 253.75 234.352 287.132C239.035 321.835 250.412 426.664 250.412 426.664L232.87 430.26C232.87 430.26 208.222 329.19 201.602 295.456C194.379 258.668 169.027 165.98 169.027 165.98H207.826Z" fill="#FE5C4F"/>
<path opacity="0.7" d="M207.826 165.98C207.826 165.98 229.846 253.75 234.352 287.132C239.035 321.835 250.412 426.664 250.412 426.664L232.87 430.26C232.87 430.26 208.222 329.19 201.602 295.456C194.379 258.668 169.027 165.98 169.027 165.98H207.826Z" fill="black"/>
<path d="M181.329 172.469L176.191 192.566C180.962 210.519 187.348 234.858 192.735 256.746C193.245 228.237 189.399 199.817 181.329 172.469Z" fill="#FE5C4F"/>
<path opacity="0.8" d="M181.329 172.469L176.191 192.566C180.962 210.519 187.348 234.858 192.735 256.746C193.245 228.237 189.399 199.817 181.329 172.469Z" fill="black"/>
<path d="M186.893 165.98C186.893 165.98 181.872 256.187 175.002 287.822C167.471 322.422 131.594 431.802 131.594 431.802H111.38C111.38 431.802 137.598 325.212 141.899 290.964C146.567 253.78 148.799 166.024 148.799 166.024L186.893 165.98Z" fill="#FE5C4F"/>
<path opacity="0.7" d="M186.893 165.98C186.893 165.98 181.872 256.187 175.002 287.822C167.471 322.422 131.594 431.802 131.594 431.802H111.38C111.38 431.802 137.598 325.212 141.899 290.964C146.567 253.78 148.799 166.024 148.799 166.024L186.893 165.98Z" fill="black"/>
<path d="M119.527 419.823C119.502 419.822 119.479 419.815 119.457 419.803C119.435 419.792 119.416 419.776 119.401 419.756C119.385 419.737 119.374 419.715 119.368 419.691C119.362 419.667 119.361 419.642 119.366 419.618C119.542 418.59 143.925 322.937 147.786 292.168C151.969 258.771 153.291 178.854 153.379 178.106C153.39 178.066 153.414 178.031 153.447 178.006C153.48 177.981 153.521 177.967 153.562 177.967C153.604 177.967 153.644 177.981 153.677 178.006C153.71 178.031 153.734 178.066 153.746 178.106C153.658 178.854 152.351 258.845 148.153 292.168C144.307 322.995 119.909 418.605 119.747 419.632C119.745 419.66 119.738 419.686 119.726 419.71C119.714 419.734 119.697 419.756 119.677 419.774C119.656 419.791 119.633 419.805 119.607 419.813C119.581 419.822 119.554 419.825 119.527 419.823Z" fill="#FE5C4F"/>
<path opacity="0.3" d="M119.527 419.823C119.502 419.822 119.479 419.815 119.457 419.803C119.435 419.792 119.416 419.776 119.401 419.756C119.385 419.737 119.374 419.715 119.368 419.691C119.362 419.667 119.361 419.642 119.366 419.618C119.542 418.59 143.925 322.937 147.786 292.168C151.969 258.771 153.291 178.854 153.379 178.106C153.39 178.066 153.414 178.031 153.447 178.006C153.48 177.981 153.521 177.967 153.562 177.967C153.604 177.967 153.644 177.981 153.677 178.006C153.71 178.031 153.734 178.066 153.746 178.106C153.658 178.854 152.351 258.845 148.153 292.168C144.307 322.995 119.909 418.605 119.747 419.632C119.745 419.66 119.738 419.686 119.726 419.71C119.714 419.734 119.697 419.756 119.677 419.774C119.656 419.791 119.633 419.805 119.607 419.813C119.581 419.822 119.554 419.825 119.527 419.823Z" fill="black"/>
<path d="M183.208 30.1919C183.208 31.0727 183.692 31.792 184.265 31.792C184.837 31.792 185.322 31.0727 185.322 30.1919C185.322 29.3111 184.852 28.5771 184.265 28.5771C183.678 28.5771 183.208 29.2965 183.208 30.1919Z" fill="#263238"/>
<path d="M193.278 30.1919C193.278 31.0727 193.748 31.792 194.335 31.792C194.923 31.792 195.378 31.0727 195.378 30.1919C195.378 29.3111 194.908 28.5771 194.335 28.5771C193.763 28.5771 193.278 29.2965 193.278 30.1919Z" fill="#263238"/>
<path d="M190.078 30.6326C191.139 33.3516 192.572 35.9106 194.335 38.2367C193.728 38.6751 193.032 38.9746 192.297 39.1141C191.561 39.2536 190.804 39.2297 190.078 39.0441V30.6326Z" fill="#DE5753"/>
<path d="M187.48 41.4953C187.55 41.4953 187.617 41.4675 187.667 41.418C187.716 41.3684 187.744 41.3012 187.744 41.2311C187.74 41.1636 187.711 41.1001 187.662 41.0537C187.613 41.0073 187.548 40.9815 187.48 40.9816C186.373 41.0081 185.276 40.7717 184.278 40.292C183.28 39.8123 182.411 39.1028 181.74 38.2218C181.721 38.1928 181.696 38.1679 181.667 38.1486C181.638 38.1292 181.606 38.1157 181.572 38.1089C181.538 38.1021 181.503 38.102 181.469 38.1088C181.434 38.1156 181.402 38.129 181.373 38.1484C181.326 38.1951 181.3 38.2585 181.3 38.3245C181.3 38.3905 181.326 38.4539 181.373 38.5007C182.074 39.4555 182.995 40.2266 184.059 40.7481C185.122 41.2695 186.296 41.5259 187.48 41.4953Z" fill="#263238"/>
<path d="M180.184 26.9478C180.264 26.9478 180.342 26.9292 180.414 26.8935C180.485 26.8579 180.547 26.8061 180.595 26.7423C180.973 26.2048 181.474 25.7657 182.056 25.4618C182.638 25.1579 183.285 24.9979 183.942 24.9954C184.08 25.0035 184.215 24.9574 184.32 24.8668C184.424 24.7763 184.489 24.6486 184.5 24.5109C184.508 24.4419 184.502 24.3718 184.481 24.3053C184.461 24.2388 184.427 24.1774 184.381 24.1248C184.335 24.0723 184.279 24.0299 184.216 24.0003C184.153 23.9708 184.085 23.9547 184.015 23.9531C183.182 23.9451 182.36 24.1417 181.62 24.5256C180.88 24.9095 180.246 25.469 179.773 26.1551C179.69 26.2623 179.652 26.3981 179.669 26.5329C179.685 26.6677 179.754 26.7905 179.861 26.8744C179.958 26.9319 180.071 26.9575 180.184 26.9478Z" fill="#263238"/>
<path d="M197.8 26.6247C197.873 26.6373 197.947 26.6373 198.02 26.6247C198.079 26.5912 198.131 26.5463 198.172 26.4927C198.214 26.439 198.245 26.3777 198.262 26.3122C198.28 26.2467 198.285 26.1783 198.276 26.111C198.267 26.0437 198.245 25.9788 198.211 25.9201C197.822 25.1852 197.262 24.5555 196.576 24.0851C195.891 23.6146 195.102 23.3174 194.277 23.219C194.153 23.2397 194.042 23.3035 193.961 23.3989C193.88 23.4943 193.836 23.6152 193.836 23.7401C193.836 23.8651 193.88 23.986 193.961 24.0814C194.042 24.1768 194.153 24.2405 194.277 24.2613C194.927 24.3511 195.546 24.5952 196.082 24.9731C196.618 25.3511 197.056 25.852 197.359 26.4339C197.413 26.4982 197.48 26.549 197.557 26.5822C197.633 26.6153 197.716 26.6299 197.8 26.6247Z" fill="#263238"/>
<path d="M161.203 113.192C154.7 117.023 147.991 120.928 141.561 124.216C140.314 124.848 139.066 125.435 137.847 125.978C138.391 124.114 138.992 122.205 139.609 120.311C140.798 116.788 142.002 113.236 143.294 109.698L151.147 88.3829L134.911 81.9385C131.975 89.2784 129.289 96.6183 126.882 104.12C125.692 107.878 124.562 111.68 123.549 115.555C122.465 119.552 121.597 123.605 120.951 127.695L120.716 129.325V129.736V130.382C120.667 130.83 120.642 131.281 120.643 131.732C120.61 132.919 120.738 134.104 121.024 135.256C121.481 137.039 122.385 138.676 123.652 140.012C125.001 141.384 126.711 142.346 128.584 142.786C129.801 143.067 131.053 143.161 132.298 143.065C133.88 142.918 135.435 142.563 136.923 142.008C139.127 141.2 141.246 140.178 143.25 138.955C145.114 137.854 146.861 136.709 148.534 135.534C155.033 130.858 161.118 125.632 166.722 119.915L161.203 113.192Z" fill="#E4897B"/>
<path d="M145.349 70.0329C134.911 71.5009 122.947 107.731 122.947 107.731L144.879 120.106C144.879 120.106 154.538 102.901 159.295 90.1295C164.359 76.7415 156.549 68.4034 145.349 70.0329Z" fill="#FE5C4F"/>
<path opacity="0.2" d="M145.349 70.0329C134.911 71.5009 122.947 107.731 122.947 107.731L144.879 120.106C144.879 120.106 154.538 102.901 159.295 90.1295C164.359 76.7415 156.549 68.4034 145.349 70.0329Z" fill="black"/>
<path d="M150.78 68.2568C154.473 67.6272 158.207 67.2642 161.952 67.1705C162.144 67.1685 162.333 67.2231 162.495 67.3275C162.657 67.4319 162.784 67.5814 162.862 67.7576C165.049 72.5726 177.336 105.103 174.826 125.009C172.595 142.625 155.375 149.965 150.002 151.902C149.82 151.966 149.626 151.985 149.435 151.957C149.244 151.93 149.062 151.857 148.905 151.745C148.749 151.632 148.621 151.484 148.533 151.312C148.446 151.14 148.401 150.95 148.402 150.757V147.997C148.4 147.758 148.47 147.523 148.604 147.324C148.738 147.125 148.928 146.971 149.151 146.882C153.159 145.282 171.582 136.723 166.106 115.467C162.139 99.7516 156.784 84.4196 150.105 69.6514C150.039 69.5173 150.005 69.37 150.005 69.2207C150.004 69.0713 150.038 68.9239 150.103 68.7895C150.168 68.6551 150.263 68.5373 150.38 68.445C150.498 68.3527 150.634 68.2883 150.78 68.2568Z" fill="#263238"/>
<path d="M128.775 447.348C129.508 447.524 130.279 447.446 130.963 447.128C131.183 446.989 131.366 446.799 131.497 446.574C131.627 446.349 131.701 446.096 131.711 445.836C131.732 445.687 131.713 445.535 131.657 445.396C131.6 445.257 131.507 445.135 131.388 445.043C130.287 444.236 126.427 445.836 125.986 446.027C125.938 446.045 125.897 446.077 125.869 446.119C125.84 446.161 125.824 446.21 125.825 446.261C125.823 446.314 125.838 446.367 125.867 446.411C125.896 446.456 125.937 446.49 125.986 446.511C126.883 446.891 127.818 447.171 128.775 447.348ZM130.757 445.351C130.873 445.363 130.984 445.404 131.08 445.469C131.08 445.469 131.212 445.586 131.183 445.792C131.183 445.967 131.138 446.14 131.054 446.294C130.969 446.448 130.847 446.578 130.698 446.672C129.392 447.039 127.995 446.892 126.794 446.261C128.044 445.705 129.39 445.396 130.757 445.351Z" fill="#FE5C4F"/>
<path d="M126.045 446.526H126.192C127.41 446.085 129.964 444.045 129.935 442.797C129.924 442.601 129.848 442.414 129.717 442.267C129.586 442.121 129.409 442.023 129.216 441.99C129.025 441.932 128.823 441.917 128.625 441.945C128.428 441.973 128.238 442.043 128.071 442.151C126.603 442.988 125.869 446.085 125.839 446.217C125.831 446.263 125.834 446.31 125.85 446.354C125.865 446.398 125.892 446.437 125.927 446.467C125.96 446.497 126.001 446.518 126.045 446.526ZM128.981 442.445H129.098C129.436 442.547 129.436 442.694 129.436 442.768C129.436 443.502 127.792 445.087 126.5 445.704C126.779 444.477 127.412 443.359 128.32 442.489C128.516 442.41 128.732 442.395 128.937 442.445H128.981Z" fill="#FE5C4F"/>
<path d="M255.844 441.109C256.773 440.938 257.617 440.457 258.237 439.744C258.368 439.544 258.449 439.315 258.472 439.078C258.495 438.84 258.459 438.6 258.369 438.379C258.328 438.241 258.25 438.118 258.144 438.022C258.038 437.927 257.907 437.862 257.767 437.835C256.299 437.454 252.599 440.771 252.188 441.197C252.16 441.243 252.145 441.297 252.145 441.351C252.145 441.406 252.16 441.459 252.188 441.505C252.21 441.555 252.248 441.597 252.296 441.623C252.344 441.65 252.399 441.66 252.453 441.652C253.597 441.572 254.732 441.39 255.844 441.109ZM257.15 438.379C257.314 438.337 257.486 438.337 257.649 438.379C257.704 438.392 257.755 438.419 257.796 438.457C257.837 438.496 257.868 438.545 257.884 438.599C257.944 438.744 257.968 438.901 257.952 439.058C257.937 439.214 257.883 439.364 257.796 439.494C257.312 440.258 255.58 440.845 253.128 441.109C254.301 439.974 255.662 439.05 257.15 438.379Z" fill="#FE5C4F"/>
<path d="M252.438 441.593H252.541C253.656 440.668 255.565 437.659 255.036 436.514C254.919 436.235 254.611 435.941 253.906 436.073C253.648 436.11 253.401 436.2 253.18 436.34C252.96 436.479 252.772 436.663 252.629 436.881C251.587 438.349 252.086 441.285 252.115 441.446C252.121 441.49 252.14 441.531 252.168 441.565C252.197 441.599 252.234 441.624 252.277 441.637C252.305 441.641 252.334 441.64 252.362 441.632C252.39 441.625 252.416 441.611 252.438 441.593ZM253.833 436.558H253.994C254.464 436.47 254.537 436.646 254.567 436.705C254.875 437.395 253.656 439.641 252.555 440.83C252.341 439.584 252.515 438.303 253.055 437.16C253.265 436.884 253.567 436.691 253.906 436.617L253.833 436.558Z" fill="#FE5C4F"/>
<path d="M157.783 115.525L166.106 109.081L167.868 121.823C167.868 121.823 160.396 127.211 155.258 122.175L157.783 115.525Z" fill="#E4897B"/>
<path d="M176.132 108.817L177.175 120.429L167.868 121.823L166.106 109.081L176.132 108.817Z" fill="#E4897B"/>
</svg>
